# xmcd
#
# Track frame offsets: 
#        150
#        8422
#        19049
#        27960
#        40067
#        55870
#        66905
#        83758
#        89912
#        102076
#        116202
#        124411
#
# Disc length: 1807 seconds
#
# Revision: 2
# Processed by: cddbd v1.5.2PL0 Copyright (c) Steve Scherf et al.
# Submitted via: ExactAudioCopy v1.0b3
#
DISCID=98070d0c
DTITLE=Nuclear Vomit - Koryto
DYEAR=2011
DGENRE=Grindcore
TTITLE0=Peta (People Eat Tasty Animals)
TTITLE1=Panckraut
TTITLE2=H1N1, Bitch!!!
TTITLE3=Pilnik W Sromie
TTITLE4=Koryto
TTITLE5=Cuntraptor
TTITLE6=Green-Piss-Of-Shit
TTITLE7=Elektrocieplownia W Bytomiu (After Eating A Pig)
TTITLE8=Vomitphobia
TTITLE9=Say' 10'
TTITLE10=We shit on your mom
TTITLE11=Grindhouse Fuck (Hellvis Pigsley)
EXTD=
EXTT0=
EXTT1=
EXTT2=
EXTT3=
EXTT4=
EXTT5=
EXTT6=
EXTT7=
EXTT8=
EXTT9=
EXTT10=
EXTT11=
PLAYORDER=
